<?xml version="1.0" standalone="no"?>
<!DOCTYPE svg PUBLIC "-//W3C//DTD SVG 20010904//EN"
 "http://www.w3.org/TR/2001/REC-SVG-20010904/DTD/svg10.dtd">
<svg version="1.0" xmlns="http://www.w3.org/2000/svg"
 width="700.000000pt" height="700.000000pt" viewBox="0 0 700.000000 700.000000"
 preserveAspectRatio="xMidYMid meet">
<metadata>
Created by potrace 1.11, written by Peter Selinger 2001-2013
</metadata>
<g transform="translate(0.000000,700.000000) scale(0.100000,-0.100000)"
fill="#000000" stroke="none">
<path d="M2544 6968 c-4 -6 -11 -39 -40 -188 -3 -14 -16 -77 -29 -140 -13 -63
-26 -126 -29 -140 -9 -52 -77 -376 -81 -390 -2 -8 -7 -28 -9 -45 -5 -27 -20
-107 -31 -160 -52 -252 -121 -583 -136 -660 -11 -55 -22 -107 -24 -115 -3 -16
-50 -246 -59 -290 -2 -14 -10 -50 -16 -80 -6 -30 -13 -64 -15 -75 -3 -11 -18
-83 -34 -160 -17 -77 -33 -155 -36 -173 -3 -19 -30 -154 -61 -300 -30 -147
-57 -280 -60 -297 -3 -16 -10 -50 -15 -75 -6 -25 -12 -54 -15 -65 -2 -11 -6
-31 -9 -45 -3 -14 -7 -36 -10 -50 -2 -14 -9 -45 -15 -70 -5 -25 -12 -56 -14
-70 -2 -14 -16 -81 -30 -149 -14 -68 -26 -124 -26 -125 0 -1 205 -2 455 -2
250 1 455 -1 455 -2 0 -2 -27 -162 -59 -355 -33 -194 -62 -365 -64 -382 -4
-25 -66 -398 -83 -500 -41 -246 -216 -1289 -220 -1315 -3 -19 -23 -142 -45
-272 -21 -130 -39 -240 -39 -243 0 -4 246 362 548 813 1294 1937 1818 2720
2167 3242 204 305 374 560 378 566 4 7 -187 10 -646 9 -359 0 -657 1 -664 3
-9 3 89 264 167 447 5 11 15 36 24 55 8 19 43 105 76 190 58 147 69 171 105
254 8 19 15 37 15 41 0 3 8 25 19 48 10 23 35 85 56 137 20 52 43 109 50 125
7 17 55 134 105 260 51 127 117 291 147 365 67 165 153 380 153 384 0 6 -2302
1 -2306 -6z"/>
</g>
</svg>
